<svg width="208" height="98" viewBox="0 0 208 98" fill="none" xmlns="http://www.w3.org/2000/svg">
<rect width="208" height="98" fill="#FCD34D"/>
<path d="M96.2898 45.642C96.2367 44.9792 95.9882 44.4621 95.544 44.0909C95.1065 43.7197 94.4403 43.5341 93.5455 43.5341C92.9754 43.5341 92.5081 43.6037 92.1435 43.7429C91.7855 43.8755 91.5204 44.0578 91.348 44.2898C91.1757 44.5218 91.0862 44.7869 91.0795 45.0852C91.0663 45.3305 91.1094 45.5526 91.2088 45.7514C91.3149 45.9437 91.4806 46.1193 91.706 46.2784C91.9313 46.4309 92.2197 46.5701 92.571 46.696C92.9223 46.822 93.34 46.9347 93.8239 47.0341L95.4943 47.392C96.6212 47.6307 97.5857 47.9455 98.3878 48.3366C99.1899 48.7277 99.8461 49.1884 100.357 49.7188C100.867 50.2424 101.241 50.8324 101.48 51.4886C101.725 52.1449 101.851 52.8608 101.858 53.6364C101.851 54.9754 101.517 56.1089 100.854 57.0369C100.191 57.965 99.2429 58.6709 98.0099 59.1548C96.7836 59.6387 95.3087 59.8807 93.5852 59.8807C91.8153 59.8807 90.2708 59.6188 88.9517 59.0952C87.6392 58.5715 86.6184 57.7661 85.8892 56.679C85.1667 55.5852 84.8021 54.1866 84.7955 52.483H90.0455C90.0786 53.1061 90.2344 53.6297 90.5128 54.054C90.7912 54.4782 91.1823 54.7997 91.6861 55.0185C92.1965 55.2372 92.803 55.3466 93.5057 55.3466C94.0956 55.3466 94.5895 55.2737 94.9872 55.1278C95.3849 54.982 95.6866 54.7798 95.892 54.5213C96.0975 54.2628 96.2036 53.9678 96.2102 53.6364C96.2036 53.3248 96.1009 53.053 95.902 52.821C95.7098 52.5824 95.3916 52.3703 94.9474 52.1847C94.5033 51.9924 93.9034 51.8134 93.1477 51.6477L91.1193 51.2102C89.3163 50.8191 87.8944 50.1662 86.8537 49.2514C85.8196 48.33 85.3059 47.0739 85.3125 45.483C85.3059 44.1903 85.6506 43.0601 86.3466 42.0923C87.0492 41.1179 88.0204 40.3589 89.2599 39.8153C90.5062 39.2718 91.9347 39 93.5455 39C95.1894 39 96.6113 39.2751 97.8111 39.8253C99.0109 40.3755 99.9356 41.151 100.585 42.152C101.241 43.1463 101.573 44.3097 101.58 45.642H96.2898Z" fill="#111827"/>
<path d="M108.489 51.0511V59.642H103V39.2784H108.29V47.2727H108.449C108.794 46.2983 109.367 45.5393 110.169 44.9957C110.971 44.4455 111.936 44.1705 113.062 44.1705C114.143 44.1705 115.081 44.4157 115.876 44.9062C116.679 45.3968 117.298 46.0729 117.736 46.9347C118.18 47.7964 118.399 48.7841 118.392 49.8977V59.642H112.903V51.0511C112.91 50.2955 112.721 49.7022 112.337 49.2713C111.959 48.8404 111.419 48.625 110.716 48.625C110.272 48.625 109.881 48.7244 109.543 48.9233C109.211 49.1155 108.953 49.3939 108.767 49.7585C108.588 50.1165 108.495 50.5473 108.489 51.0511Z" fill="#111827"/>
<path d="M124.472 59.8807C123.497 59.8807 122.635 59.7216 121.886 59.4034C121.144 59.0786 120.561 58.5881 120.136 57.9318C119.712 57.2756 119.5 56.4403 119.5 55.4261C119.5 54.5909 119.643 53.8783 119.928 53.2884C120.213 52.6918 120.61 52.2045 121.121 51.8267C121.631 51.4489 122.224 51.1605 122.901 50.9616C123.583 50.7628 124.319 50.6335 125.108 50.5739C125.963 50.5076 126.649 50.428 127.166 50.3352C127.69 50.2358 128.068 50.0999 128.3 49.9276C128.532 49.7486 128.648 49.5133 128.648 49.2216V49.1818C128.648 48.7841 128.495 48.4792 128.19 48.267C127.885 48.0549 127.494 47.9489 127.017 47.9489C126.493 47.9489 126.066 48.0649 125.734 48.2969C125.41 48.5223 125.214 48.8703 125.148 49.3409H120.097C120.163 48.4129 120.458 47.5578 120.982 46.7756C121.512 45.9867 122.284 45.357 123.298 44.8864C124.312 44.4091 125.579 44.1705 127.097 44.1705C128.19 44.1705 129.171 44.2997 130.04 44.5582C130.908 44.8101 131.647 45.1648 132.257 45.6222C132.867 46.0729 133.331 46.6032 133.649 47.2131C133.974 47.8163 134.136 48.4725 134.136 49.1818V59.642H129.006V57.4943H128.886C128.581 58.0644 128.21 58.5251 127.773 58.8764C127.342 59.2277 126.848 59.483 126.291 59.642C125.741 59.8011 125.134 59.8807 124.472 59.8807ZM126.261 56.4205C126.679 56.4205 127.07 56.3343 127.435 56.1619C127.806 55.9896 128.107 55.741 128.339 55.4162C128.571 55.0914 128.688 54.697 128.688 54.233V52.9602C128.542 53.0199 128.386 53.0762 128.22 53.1293C128.061 53.1823 127.889 53.232 127.703 53.2784C127.524 53.3248 127.332 53.3679 127.126 53.4077C126.928 53.4474 126.719 53.4839 126.5 53.517C126.076 53.5833 125.728 53.6927 125.456 53.8452C125.191 53.991 124.992 54.1733 124.859 54.392C124.733 54.6042 124.67 54.8428 124.67 55.108C124.67 55.5322 124.82 55.857 125.118 56.0824C125.416 56.3078 125.797 56.4205 126.261 56.4205Z" fill="#111827"/>
<path d="M135.297 59.642V44.3693H140.626V47.2727H140.786C141.064 46.1989 141.505 45.4134 142.108 44.9162C142.718 44.419 143.43 44.1705 144.246 44.1705C144.484 44.1705 144.72 44.1903 144.952 44.2301C145.19 44.2633 145.419 44.313 145.638 44.3793V49.0625C145.366 48.9697 145.031 48.9001 144.634 48.8537C144.236 48.8073 143.894 48.7841 143.609 48.7841C143.072 48.7841 142.589 48.9067 142.158 49.152C141.733 49.3906 141.399 49.7287 141.153 50.1662C140.908 50.5971 140.786 51.1042 140.786 51.6875V59.642H135.297Z" fill="#111827"/>
<path d="M146.5 59.642V56.6193L153.182 48.625V48.5455H146.739V44.3693H159.665V47.7102L153.58 55.3864V55.4659H159.903V59.642H146.5Z" fill="#111827"/>
<path d="M79.7786 49.2487C80.231 48.8444 79.9438 48.0975 79.3359 48.0975H68.3081L72.3408 29.8041C72.4788 29.178 71.7299 28.7433 71.2508 29.1714L48.2214 49.7513C47.769 50.1556 48.0562 50.9025 48.6641 50.9025H59.6919L55.6592 69.1959C55.5212 69.822 56.2701 70.2567 56.7492 69.8286L79.7786 49.2487Z" fill="#111827"/>
</svg>
